<?xml version="1.0" standalone="no"?>
<!DOCTYPE svg PUBLIC "-//W3C//DTD SVG 20010904//EN"
 "http://www.w3.org/TR/2001/REC-SVG-20010904/DTD/svg10.dtd">
<svg version="1.0" xmlns="http://www.w3.org/2000/svg"
 width="260.000000pt" height="260.000000pt" viewBox="0 0 260.000000 260.000000"
 preserveAspectRatio="xMidYMid meet">
<metadata>
Created by potrace 1.14, written by Peter Selinger 2001-2017
</metadata>
<g transform="translate(0.000000,260.000000) scale(0.100000,-0.100000)"
fill="#000000" stroke="none">
<path d="M1280 2585 c0 -8 -4 -15 -8 -15 -5 0 -20 -21 -33 -47 -13 -27 -28
-51 -33 -54 -5 -4 -5 -12 -2 -18 4 -6 3 -11 -2 -11 -9 0 -28 -65 -24 -82 4
-15 -7 -7 -71 57 -63 61 -136 115 -156 115 -13 0 -24 -36 -26 -81 -1 -20 -5
-40 -8 -45 -3 -5 -4 -42 -3 -81 2 -40 1 -73 -1 -73 -2 0 -18 8 -36 17 -18 9
-34 18 -37 18 -3 1 -18 7 -34 14 -16 6 -36 13 -45 15 -9 2 -23 6 -31 9 -8 3
-30 8 -47 11 -26 4 -33 2 -34 -12 -3 -31 3 -87 10 -92 3 -3 7 -14 9 -25 1 -11
7 -29 12 -40 4 -11 14 -35 22 -52 7 -18 16 -33 20 -33 5 0 8 -4 8 -9 0 -5 -35
-9 -77 -9 -67 0 -99 -3 -181 -16 -7 -1 -17 -7 -22 -12 -14 -14 47 -100 115
-165 49 -47 58 -63 37 -64 -4 -1 -18 -7 -32 -15 -14 -7 -27 -13 -30 -13 -26 2
-160 -83 -160 -101 0 -14 49 -52 63 -48 4 1 7 -3 7 -8 0 -6 7 -10 15 -10 8 0
15 -4 15 -10 0 -5 3 -9 8 -8 4 1 25 -6 47 -16 21 -9 47 -18 57 -19 33 -5 29
-14 -30 -73 -69 -70 -123 -146 -114 -161 10 -15 57 -25 137 -29 39 -2 72 -4
75 -5 3 -1 10 0 15 1 54 11 56 11 46 -8 -6 -11 -7 -22 -4 -26 3 -3 1 -6 -5 -6
-6 0 -16 -17 -23 -37 -6 -21 -14 -42 -18 -48 -3 -5 -6 -14 -8 -20 -1 -5 -4
-21 -8 -35 -15 -67 -15 -81 -1 -86 22 -9 119 14 170 40 25 13 42 18 39 13 -3
-6 4 -3 18 6 13 9 26 17 29 17 3 0 6 -35 6 -77 0 -69 4 -113 17 -177 5 -26 31
-28 56 -5 11 10 25 19 30 19 5 0 16 8 23 18 7 9 23 22 34 29 21 11 22 10 22
-35 0 -66 11 -183 19 -207 3 -11 7 -34 8 -50 0 -17 4 -36 8 -42 4 -6 3 -14 -2
-17 -5 -4 -13 3 -16 15 -12 38 -132 141 -167 144 -3 0 -10 3 -14 8 -4 4 -19 7
-33 7 -14 0 -33 4 -41 10 -9 5 -19 5 -27 -2 -9 -7 -13 -7 -13 1 0 8 -5 9 -19
2 -10 -6 -20 -8 -23 -6 -6 6 -58 -10 -115 -36 -24 -11 -46 -19 -50 -18 -3 0
-10 -6 -15 -15 -5 -9 -13 -16 -18 -16 -6 0 -19 -8 -31 -17 -59 -49 -71 -63
-65 -79 4 -9 9 -14 12 -11 9 9 103 -77 154 -141 14 -18 31 -32 38 -32 6 0 12
-3 12 -8 0 -8 75 -44 105 -49 10 -2 22 -8 25 -13 3 -5 11 -5 19 0 8 4 24 4 37
0 12 -5 24 -6 27 -4 3 3 22 7 43 10 21 3 43 9 49 14 7 6 14 8 16 5 3 -2 20 9
37 25 18 16 32 26 32 22 0 -4 14 15 32 41 33 51 45 51 50 2 2 -16 7 -33 11
-36 4 -3 9 -16 10 -27 1 -12 4 -22 8 -22 4 0 10 -12 14 -27 3 -15 16 -48 27
-73 48 -106 72 -155 78 -160 4 -3 13 -20 21 -37 8 -18 17 -33 21 -33 20 0 98
46 98 57 0 15 -51 115 -63 124 -5 3 -9 10 -9 15 0 5 -5 19 -11 32 -12 27 -4
37 20 27 10 -5 33 -9 51 -10 18 -1 35 -5 38 -8 3 -2 31 2 62 10 91 24 162 85
210 183 24 49 27 66 27 157 0 57 4 103 9 103 5 0 7 3 3 6 -3 3 1 23 8 45 17
46 10 52 -54 50 -54 -2 -156 -16 -156 -21 0 -1 -7 -3 -15 -5 -35 -6 -112 -47
-146 -77 -63 -55 -108 -148 -108 -220 0 -15 -3 -25 -8 -22 -4 3 -8 0 -8 -5 0
-6 4 -11 8 -11 4 0 9 -11 10 -25 1 -14 -2 -25 -7 -25 -10 0 -36 86 -35 112 1
10 -2 15 -7 13 -4 -3 -8 3 -8 12 0 10 -6 45 -14 79 -7 33 -13 68 -11 77 1 9
-1 17 -5 17 -3 0 -7 17 -8 38 -2 20 -4 53 -6 73 -2 28 0 36 10 32 8 -3 12 -8
9 -10 -3 -3 0 -10 5 -17 5 -6 18 -22 29 -35 l19 -23 25 27 c26 28 75 125 96
188 l12 39 61 -62 c108 -109 175 -141 178 -84 2 30 3 37 10 49 3 6 5 53 4 106
0 74 3 95 12 92 7 -3 13 -9 13 -14 0 -5 3 -8 8 -7 4 1 19 -4 35 -10 82 -35 92
-38 165 -49 l44 -6 -7 39 c-8 45 -13 69 -15 69 -1 0 -3 9 -5 20 -2 12 -16 46
-30 78 -13 31 -25 60 -25 63 0 3 46 7 102 9 126 3 165 11 171 36 3 10 2 19 -2
21 -3 2 -23 26 -43 53 -20 28 -57 67 -82 89 -26 22 -42 44 -39 52 3 8 9 11 14
8 11 -7 165 69 203 100 l29 24 -49 36 c-27 20 -59 39 -71 42 -13 3 -23 10 -23
16 0 5 -4 6 -10 3 -5 -3 -21 1 -34 10 -14 9 -27 16 -30 16 -22 -3 -33 1 -33
14 0 8 4 15 8 15 5 0 31 23 58 50 27 28 47 50 44 50 -3 0 4 9 17 20 13 11 20
20 16 20 -4 0 0 7 9 16 9 9 15 26 13 37 -3 20 -10 23 -83 31 -22 3 -42 6 -45
6 -3 1 -38 2 -78 1 -60 0 -72 2 -63 13 6 7 8 16 4 19 -3 4 -1 7 5 7 7 0 11 3
10 8 0 4 7 25 16 46 10 22 20 47 22 55 2 9 8 33 13 54 13 52 4 78 -23 71 -11
-2 -31 -6 -43 -7 -13 0 -23 -5 -23 -9 0 -4 -7 -5 -15 -2 -8 4 -15 2 -15 -3 0
-5 -7 -10 -15 -11 -8 -1 -22 -3 -30 -4 -8 -1 -15 -6 -15 -11 0 -6 -3 -7 -7 -4
-3 4 -12 2 -20 -4 -7 -6 -13 -8 -13 -5 0 4 -7 0 -16 -8 -8 -9 -19 -16 -23 -16
-4 0 -8 37 -7 83 0 92 -10 177 -24 191 -16 16 -79 -25 -156 -101 -77 -76 -75
-75 -89 -13 -7 32 -89 179 -97 174 -4 -3 -8 0 -8 5 0 6 -7 11 -15 11 -8 0 -15
-7 -15 -15z"/>
</g>
</svg>
